<?xml version="1.0" encoding="UTF-8"?>
<svg version="1.1" xmlns="http://www.w3.org/2000/svg" width="1495" height="180">
<path d="M0 0 C35.97 0 71.94 0 109 0 C109 39.93 109 79.86 109 121 C100.42 121 91.84 121 83 121 C83 89.32 83 57.64 83 25 C64.19 25 45.38 25 26 25 C26.33 41.5 26.66 58 27 75 C32.78678362 67.4771813 38.5383255 59.97643872 44.125 52.3125 C48.93475934 45.74605889 53.80844784 39.27178196 59 33 C64.05007614 34.52945163 67.3353263 37.62090281 71.1875 41.0625 C72.42948002 42.15926389 73.67290363 43.25439587 74.91796875 44.34765625 C75.46219482 44.83242432 76.0064209 45.31719238 76.56713867 45.81665039 C78.01032765 47.09880165 78.01032765 47.09880165 80 48 C78.36273085 53.22268135 75.12135398 57.1844051 71.875 61.5 C71.25826416 62.32878662 70.64152832 63.15757324 70.00610352 64.01147461 C64.70024983 71.12119883 59.30740118 78.16473429 53.91162109 85.20629883 C49.51052941 90.96622089 45.21954699 96.79351976 41 102.6875 C36.5110463 108.95104682 31.90406101 115.05271147 27 121 C24.87131273 123.60116613 22.74745103 126.20624375 20.625 128.8125 C20.06965576 129.49417236 19.51431152 130.17584473 18.94213867 130.87817383 C10.12115786 141.67870749 10.12115786 141.67870749 2 153 C1.34 153 0.68 153 0 153 C0 102.51 0 52.02 0 0 Z " fill="#004052" transform="translate(481,21)"/>
<path d="M0 0 C3.07032939 0.31329892 4.0122336 1.01284637 6.18359375 3.29296875 C7.29927734 4.72576172 7.29927734 4.72576172 8.4375 6.1875 C10.924827 9.36141148 13.39517846 12.47063513 16.125 15.4375 C18 18 18 18 17.90625 19.86328125 C16.63981044 22.84924005 14.72229687 24.52325916 12.375 26.75 C8.63493653 30.31744516 5.20198136 34.01126479 1.82080078 37.92089844 C-1.11822025 41.27685219 -4.18579091 44.50869226 -7.25 47.75 C-11.91706899 52.70974073 -16.57731801 57.67476573 -21.1875 62.6875 C-22.44626953 64.05455078 -22.44626953 64.05455078 -23.73046875 65.44921875 C-25.91271064 67.90189338 -27.97515645 70.41657892 -30 73 C-29.51140503 73.66866089 -29.51140503 73.66866089 -29.01293945 74.35083008 C-22.17603162 83.72310614 -15.46564433 93.16505848 -8.94189453 102.75805664 C-5.06681404 108.45279542 -1.14424145 114.11171324 2.8125 119.75 C8.09711146 127.2821243 13.36856282 134.82317803 18.625 142.375 C19.30022705 143.34405273 19.9754541 144.31310547 20.67114258 145.31152344 C21.91505235 147.09927993 23.15548066 148.88946635 24.39160156 150.68261719 C25.37228799 152.09559162 26.36590065 153.49984873 27.38183594 154.88769531 C28.5234375 156.4765625 28.5234375 156.4765625 30 159 C28.38001014 163.85996958 23.98327575 165.28897683 19.6875 167.75 C18.81931641 168.26949219 17.95113281 168.78898438 17.05664062 169.32421875 C16.21681641 169.81019531 15.37699219 170.29617187 14.51171875 170.796875 C13.74303467 171.24385742 12.97435059 171.69083984 12.18237305 172.15136719 C10 173 10 173 7.89868164 172.86669922 C5.46337798 171.75504588 4.60527713 170.54964395 3.109375 168.3359375 C2.573125 167.55541016 2.036875 166.77488281 1.484375 165.97070312 C0.91203125 165.11412109 0.3396875 164.25753906 -0.25 163.375 C-1.50505154 161.53895532 -2.76026622 159.70302213 -4.015625 157.8671875 C-4.66853516 156.90393555 -5.32144531 155.94068359 -5.99414062 154.94824219 C-9.2896344 150.10447601 -12.64812873 145.30483707 -16 140.5 C-17.34659284 138.56396807 -18.69294776 136.62777063 -20.0390625 134.69140625 C-23.81139832 129.26901939 -27.58970893 123.85085089 -31.375 118.4375 C-32.22989014 117.21377686 -32.22989014 117.21377686 -33.10205078 115.96533203 C-35.74038499 112.19617357 -38.3942706 108.440507 -41.09375 104.71484375 C-41.80265381 103.73463257 -41.80265381 103.73463257 -42.52587891 102.73461914 C-43.39878937 101.53140542 -44.27580723 100.33115631 -45.15771484 99.13452148 C-48 95.21957316 -48 95.21957316 -48 93 C-49.1446875 94.1446875 -49.1446875 94.1446875 -50.3125 95.3125 C-53 98 -53 98 -54.64094543 99.23933411 C-56.7592284 101.98358637 -56.40209626 104.43687701 -56.43237305 107.8581543 C-56.4425647 108.55109589 -56.45275635 109.24403748 -56.46325684 109.95797729 C-56.49343443 112.24680618 -56.50265963 114.5352169 -56.51171875 116.82421875 C-56.52856198 118.4117828 -56.54671174 119.99933348 -56.56611633 121.58686829 C-56.61366144 125.76416854 -56.64344142 129.94141461 -56.66955566 134.11889648 C-56.69933858 138.38210757 -56.74587664 142.64513187 -56.79101562 146.90820312 C-56.87709999 155.27204375 -56.94442222 163.6359013 -57 172 C-62.5042271 166.53053373 -62.5042271 166.53053373 -64.54296875 163.87109375 C-64.97802734 163.30970703 -65.41308594 162.74832031 -65.86132812 162.16992188 C-66.29896484 161.59822266 -66.73660156 161.02652344 -67.1875 160.4375 C-68.05382986 159.30953585 -68.92242596 158.18330962 -69.79296875 157.05859375 C-70.24372269 156.44634445 -70.69447662 155.83409515 -71.15888977 155.20329285 C-72.97357895 152.89567117 -72.97357895 152.89567117 -75.46635437 150.95808411 C-81.67383206 145.22089511 -83.59436787 140.38013881 -84.06351948 131.92331982 C-84.19250347 125.65730498 -84.10312896 119.40594283 -83.9765625 113.140625 C-83.95229213 110.42253307 -83.94317306 107.70444552 -83.9336853 104.98626709 C-83.90276319 98.58971119 -83.82092801 92.1948909 -83.72019041 85.79909492 C-83.60791031 78.51020555 -83.55330878 71.22122754 -83.50323606 63.93168688 C-83.39907195 48.95333588 -83.21589646 33.97723552 -83 19 C-74.42 19 -65.84 19 -57 19 C-56.67 32.86 -56.34 46.72 -56 61 C-47.0598679 51.31492764 -47.0598679 51.31492764 -38.125 41.625 C-33.74787897 36.87825256 -29.34702327 32.15414827 -24.9375 27.4375 C-16.49803491 18.40571056 -8.07076653 9.36539461 0 0 Z " fill="#004052" transform="translate(1347,2)"/>
<path d="M0 0 C35.64 0 71.28 0 108 0 C106.87479508 13.50245909 106.87479508 13.50245909 106.07617188 18.91430664 C105.81084656 20.73032127 105.81084656 20.73032127 105.54016113 22.58302307 C105.35159546 23.84597702 105.16302979 25.10893097 104.96875 26.41015625 C104.77054179 27.75341658 104.57258942 29.09671469 104.37487793 30.44004822 C103.96372983 33.22788839 103.55000732 36.01532974 103.13427734 38.80249023 C102.60189452 42.37270751 102.07539365 45.94376295 101.55068207 49.51511478 C101.14439094 52.276895 100.73541376 55.03827207 100.32557678 57.79952812 C100.03567238 59.75532137 99.7477403 61.71140663 99.45983887 63.66749573 C99.19451355 65.44095619 99.19451355 65.44095619 98.92382812 67.25024414 C98.76918091 68.2910463 98.61453369 69.33184845 98.4552002 70.40419006 C98 73 98 73 97 76 C89.08 76.33 81.16 76.66 73 77 C74.49043747 79.55779688 75.9810811 82.11547381 77.47265625 84.67260742 C78.74579409 86.85762697 80.01661111 89.04400035 81.28515625 91.23168945 C84.20665941 96.26098602 87.14273808 101.27133775 90.2265625 106.203125 C90.69916504 106.96890869 91.17176758 107.73469238 91.65869141 108.52368164 C92.53407786 109.93586769 93.42383052 111.33927756 94.32958984 112.73217773 C97.12398516 117.27933624 97.12398516 117.27933624 96.5625 120.54296875 C94.54597409 123.71395574 92.34329047 126.69253935 90 129.625 C86.37506013 134.21947196 86.37506013 134.21947196 83 139 C79.06435837 137.51748275 77.8480898 135.53138217 75.890625 131.8828125 C75.30933838 130.81554932 74.72805176 129.74828613 74.12915039 128.64868164 C73.50903076 127.4858667 72.88891113 126.32305176 72.25 125.125 C71.24850256 123.27908996 70.24263111 121.43560834 69.23646545 119.59223938 C68.53957443 118.31513381 67.84390341 117.03736181 67.1493988 115.75895691 C63.54858511 109.138728 59.81499236 102.59797892 56.0625 96.0625 C55.08446411 94.35453247 55.08446411 94.35453247 54.08666992 92.61206055 C50.93361502 87.10620351 47.7730226 81.60468903 44.61061096 76.10420227 C43.11888742 73.50837246 41.62921151 70.91137098 40.13986206 68.31417847 C39.08304834 66.47329356 38.02314483 64.6342117 36.96313477 62.79516602 C36.32690186 61.68584717 35.69066895 60.57652832 35.03515625 59.43359375 C34.4719165 58.45447021 33.90867676 57.47534668 33.32836914 56.46655273 C32 54 32 54 31 51 C45.19 50.67 59.38 50.34 74 50 C75.32 41.75 76.64 33.5 78 25 C60.84 25 43.68 25 26 25 C26 56.68 26 88.36 26 121 C17.42 121 8.84 121 0 121 C0 81.07 0 41.14 0 0 Z " fill="#004052" transform="translate(1042,21)"/>
<path d="M0 0 C1.8898887 0.03176073 3.77991867 0.0559344 5.66999817 0.07289124 C10.61405954 0.13740858 15.54944896 0.30395765 20.4901123 0.49285889 C25.54364661 0.66767692 30.59860211 0.74459414 35.65429688 0.83007812 C45.55065915 1.01168734 55.44062083 1.30127195 65.33203125 1.66015625 C59.06017028 10.11253774 59.06017028 10.11253774 55.97265625 13.65234375 C55.41449219 14.29429688 54.85632813 14.93625 54.28125 15.59765625 C53.44013672 16.55671875 53.44013672 16.55671875 52.58203125 17.53515625 C52.00582031 18.19773437 51.42960938 18.8603125 50.8359375 19.54296875 C48.71516381 21.97518473 46.61450852 24.37767898 44.33203125 26.66015625 C42.31877136 26.7973175 42.31877136 26.7973175 39.81323242 26.64575195 C38.87432663 26.59784012 37.93542084 26.54992828 36.96806335 26.50056458 C35.43699699 26.41907417 35.43699699 26.41907417 33.875 26.3359375 C31.70784593 26.27334788 29.54050709 26.21691178 27.37304688 26.16601562 C23.95395184 26.08456784 20.55135445 25.97467119 17.13793945 25.75854492 C16.03474365 25.6919165 14.93154785 25.62528809 13.79492188 25.55664062 C12.8221228 25.4869104 11.84932373 25.41718018 10.8470459 25.34533691 C5.62082804 25.51329525 0.4741328 26.71128599 -4.66796875 27.66015625 C-11.10296875 38.05515625 -11.10296875 38.05515625 -17.66796875 48.66015625 C10.05203125 48.66015625 37.77203125 48.66015625 66.33203125 48.66015625 C66.33203125 83.6667352 66.33203125 83.6667352 53.31640625 100.05859375 C50.19474022 104.15117166 47.62041255 108.53806651 45.01953125 112.97265625 C40.60119087 120.39099663 40.60119087 120.39099663 38.33203125 122.66015625 C35.43980572 122.84840111 32.64404985 122.91185871 29.75146484 122.88720703 C28.86359787 122.88749908 27.9757309 122.88779114 27.06095886 122.88809204 C24.11736378 122.88669532 21.17401978 122.87111809 18.23046875 122.85546875 C16.19308612 122.85173983 14.15570171 122.84889229 12.11831665 122.84689331 C6.749014 122.83924729 1.37981909 122.8195905 -3.98944092 122.79748535 C-9.46560203 122.77704776 -14.94178051 122.76789607 -20.41796875 122.7578125 C-31.16801616 122.73634551 -41.9179835 122.70219791 -52.66796875 122.66015625 C-51.72357691 121.38772717 -50.77733256 120.11667289 -49.83032227 118.84619141 C-49.04021507 117.78424057 -49.04021507 117.78424057 -48.23414612 116.70083618 C-46.16628217 114.00647438 -43.91860416 111.52058542 -41.60546875 109.03515625 C-39.00761326 106.23620294 -36.74425521 103.78812733 -34.78369141 100.49926758 C-32.93724276 98.29639314 -32.00759914 97.71845718 -29.13923645 97.22607422 C-25.85881356 97.18508003 -22.62652025 97.32973392 -19.3515625 97.5234375 C-16.87054046 97.58786579 -14.38941166 97.64828435 -11.90820312 97.70507812 C-8.00932888 97.82442892 -4.11897038 97.97189611 -0.22436523 98.19116211 C13.94153894 99.53059549 13.94153894 99.53059549 26.70330811 94.79632568 C31.14404576 89.68575082 33.82265476 83.88805538 36.33203125 77.66015625 C37.32203125 75.68015625 37.32203125 75.68015625 38.33203125 73.66015625 C9.95203125 73.66015625 -18.42796875 73.66015625 -47.66796875 73.66015625 C-47.66796875 43.73687583 -47.66796875 43.73687583 -39.85546875 32.59765625 C-39.1241632 31.46635936 -38.39825982 30.33155248 -37.67773438 29.19335938 C-36.23882347 26.93094717 -34.75302398 24.74050195 -33.21154785 22.54232788 C-31.39566494 19.88169638 -29.89851023 17.20059905 -28.48510742 14.30740356 C-21.43892867 0.58448502 -14.76277101 -0.73327947 0 0 Z " fill="#004052" transform="translate(765.66796875,19.33984375)"/>
<path d="M0 0 C3.95109921 1.31703307 5.46186943 3.85407913 7.875 7.0625 C8.86215353 8.34461906 9.85048214 9.62583405 10.83984375 10.90625 C11.35659668 11.57785156 11.87334961 12.24945313 12.40576172 12.94140625 C20.78550221 23.7619226 29.59163767 34.06726429 39 44 C40.27267167 45.35236013 41.54477827 46.70525219 42.81640625 48.05859375 C45.52221389 50.93728701 48.23087408 53.81325533 50.94140625 56.6875 C55.50391449 61.52961401 60.04150691 66.39481732 64.57177734 71.26708984 C65.11141113 71.84668457 65.65104492 72.4262793 66.20703125 73.0234375 C66.6760083 73.52794434 67.14498535 74.03245117 67.62817383 74.55224609 C69.05805513 76.06126837 70.53001552 77.53001552 72 79 C72.33 57.88 72.66 36.76 73 15 C81.58 15 90.16 15 99 15 C99 59.88 99 104.76 99 151 C98.34 151 97.68 151 97 151 C95.2334431 148.93146756 93.57674822 146.85370928 91.9375 144.6875 C90.9397075 143.39253103 89.9409984 142.09826782 88.94140625 140.8046875 C88.19528076 139.83547363 88.19528076 139.83547363 87.43408203 138.84667969 C84.7537003 135.39512923 81.96777724 132.03124241 79.1875 128.66015625 C77.67655934 126.82274448 76.17724818 124.97572958 74.6875 123.12109375 C70.91253631 118.43427228 67.12117572 113.9518239 62.78125 109.78076172 C61.01266005 108.01265658 59.37964859 106.18150532 57.75 104.28515625 C54.14217514 100.13315829 50.40483462 96.12011062 46.625 92.125 C41.59054116 86.78257562 36.60920285 81.40687376 31.734375 75.91796875 C30.20816803 74.23020383 28.60901494 72.60901494 27 71 C26.67 92.45 26.34 113.9 26 136 C17.42 136 8.84 136 0 136 C0 91.12 0 46.24 0 0 Z " fill="#004052" transform="translate(215,6)"/>
<path d="M0 0 C3.95109921 1.31703307 5.46186943 3.85407913 7.875 7.0625 C8.86215353 8.34461906 9.85048214 9.62583405 10.83984375 10.90625 C11.35659668 11.57785156 11.87334961 12.24945313 12.40576172 12.94140625 C20.78550221 23.7619226 29.59163767 34.06726429 39 44 C40.27267167 45.35236013 41.54477827 46.70525219 42.81640625 48.05859375 C45.52221389 50.93728701 48.23087408 53.81325533 50.94140625 56.6875 C55.50391449 61.52961401 60.04150691 66.39481732 64.57177734 71.26708984 C65.11141113 71.84668457 65.65104492 72.4262793 66.20703125 73.0234375 C66.6760083 73.52794434 67.14498535 74.03245117 67.62817383 74.55224609 C69.05805513 76.06126837 70.53001552 77.53001552 72 79 C72.33 57.88 72.66 36.76 73 15 C81.58 15 90.16 15 99 15 C99 59.88 99 104.76 99 151 C98.34 151 97.68 151 97 151 C95.2334431 148.93146756 93.57674822 146.85370928 91.9375 144.6875 C90.9397075 143.39253103 89.9409984 142.09826782 88.94140625 140.8046875 C88.19528076 139.83547363 88.19528076 139.83547363 87.43408203 138.84667969 C84.7537003 135.39512923 81.96777724 132.03124241 79.1875 128.66015625 C77.67655934 126.82274448 76.17724818 124.97572958 74.6875 123.12109375 C70.91253631 118.43427228 67.12117572 113.9518239 62.78125 109.78076172 C61.01266005 108.01265658 59.37964859 106.18150532 57.75 104.28515625 C54.14217514 100.13315829 50.40483462 96.12011062 46.625 92.125 C41.59054116 86.78257562 36.60920285 81.40687376 31.734375 75.91796875 C30.20816803 74.23020383 28.60901494 72.60901494 27 71 C26.67 92.45 26.34 113.9 26 136 C17.42 136 8.84 136 0 136 C0 91.12 0 46.24 0 0 Z " fill="#004052" transform="translate(1,6)"/>
<path d="M0 0 C24.42 0 48.84 0 74 0 C74 41.58 74 83.16 74 126 C26.70447531 145.40329218 26.70447531 145.40329218 17.26904297 149.18847656 C15.85761114 149.75578 14.44721009 150.3256517 13.03759766 150.89746094 C10.88640932 151.76995776 8.73266206 152.63581159 6.578125 153.5 C5.37575195 153.9846875 4.17337891 154.469375 2.93457031 154.96875 C0 156 0 156 -3 156 C-3 126.3 -3 96.6 -3 66 C1.40344327 68.93562885 4.33575045 71.12819924 7.875 74.8125 C11.55096669 78.57163336 15.30283149 82.12370024 19.30859375 85.52734375 C19.86675781 86.01332031 20.42492187 86.49929687 21 87 C21.51933105 87.38849121 22.03866211 87.77698242 22.57373047 88.17724609 C24.70837301 90.90529149 24.43693326 93.21154347 24.51171875 96.63671875 C24.56489258 98.58481445 24.56489258 98.58481445 24.61914062 100.57226562 C24.6422405 101.94400517 24.6650229 103.3157501 24.6875 104.6875 C24.72067542 106.07099607 24.75516531 107.45446129 24.79101562 108.83789062 C24.87363241 112.22517883 24.94274058 115.61220357 25 119 C25.62567871 118.75765625 26.25135742 118.5153125 26.89599609 118.265625 C29.7210098 117.17362937 32.54796664 116.08675568 35.375 115 C36.85226562 114.42765625 36.85226562 114.42765625 38.359375 113.84375 C39.30039062 113.4828125 40.24140625 113.121875 41.2109375 112.75 C42.08024902 112.41484375 42.94956055 112.0796875 43.84521484 111.734375 C46 111 46 111 48 111 C48 82.62 48 54.24 48 25 C40.08 25 32.16 25 24 25 C18.33241185 21.10790629 14.68549631 18.13136381 10.5 13.0625 C9.45906845 11.90932068 8.4121885 10.76148241 7.359375 9.61914062 C0 1.52856853 0 1.52856853 0 0 Z " fill="#004052" transform="translate(363,21)"/>
<path d="M0 0 C2.35937053 0.01680994 4.71877271 0.02960982 7.07818604 0.03858948 C13.25374846 0.07276514 19.42737092 0.16100908 25.60217285 0.26092529 C31.91680668 0.35340156 38.23175753 0.39418449 44.546875 0.43945312 C56.91230534 0.53564379 69.27630314 0.68901787 81.640625 0.87890625 C77.00287944 5.55816928 72.15359034 9.84344407 67.05859375 14.0078125 C64.87942475 15.79372985 62.97920506 17.55992381 61.00390625 19.59375 C50.19786493 29.81830031 43.77408969 25.87890625 26.640625 25.87890625 C26.640625 67.78890625 26.640625 109.69890625 26.640625 152.87890625 C22.86616234 149.10444359 19.34983957 145.35367378 15.890625 141.31640625 C15.41625 140.77177734 14.941875 140.22714844 14.453125 139.66601562 C13.44875272 138.49645054 12.46560496 137.30837624 11.50273132 136.10441589 C9.64351301 133.81212024 9.64351301 133.81212024 7.37776184 131.63703918 C-1.3835852 122.0112191 -0.52821061 112.17296645 -0.23828125 99.70703125 C-0.22146744 97.57186583 -0.20866939 95.43666538 -0.19969177 93.30145264 C-0.16554572 87.71762984 -0.07733081 82.13595882 0.02264404 76.55297852 C0.1314946 69.83513857 0.17232646 63.11657368 0.22472382 56.39810181 C0.31160901 46.22354621 0.48417887 36.05369917 0.640625 25.87890625 C-17.509375 25.87890625 -35.659375 25.87890625 -54.359375 25.87890625 C-50.76338163 22.28291288 -47.1707345 18.8976241 -43.296875 15.62890625 C-42.79994141 15.20222656 -42.30300781 14.77554688 -41.79101562 14.3359375 C-40.70361218 13.41531372 -39.59689821 12.51714627 -38.47465515 11.639328 C-36.2790605 9.8797241 -36.2790605 9.8797241 -34.21577454 7.6374054 C-24.2344082 -1.66135702 -12.95787495 -0.2721434 0 0 Z " fill="#004052" transform="translate(923.359375,20.12109375)"/>
<path d="M0 0 C8.58 0 17.16 0 26 0 C26 50.16 26 100.32 26 152 C22.42348222 148.42348222 19.05988885 144.85477969 15.8125 141 C15.39419922 140.51144531 14.97589844 140.02289063 14.54492188 139.51953125 C13.62057563 138.42650868 12.72052206 137.31264191 11.84111023 136.18315125 C9.99248061 133.89541255 9.99248061 133.89541255 7.53364563 131.74690247 C-1.35190454 122.57446804 -1.22140207 113.41299034 -1.13296509 101.07878113 C-1.08191361 98.47307223 -1.0297539 95.86738484 -0.9765625 93.26171875 C-0.95228226 90.56747661 -0.9431712 87.87323879 -0.9336853 85.1789093 C-0.90278466 78.84258441 -0.82097971 72.50801524 -0.72019041 66.17245847 C-0.6078421 58.95126224 -0.55329189 51.72997557 -0.50323606 44.50812089 C-0.39912111 29.67098883 -0.21597244 14.8359775 0 0 Z " fill="#004053" transform="translate(1193,21)"/>
<path d="M0 0 C8.58 0 17.16 0 26 0 C26 50.16 26 100.32 26 152 C22.42348222 148.42348222 19.05988885 144.85477969 15.8125 141 C15.39419922 140.51144531 14.97589844 140.02289063 14.54492188 139.51953125 C13.62057563 138.42650868 12.72052206 137.31264191 11.84111023 136.18315125 C9.99248061 133.89541255 9.99248061 133.89541255 7.53364563 131.74690247 C-1.35190454 122.57446804 -1.22140207 113.41299034 -1.13296509 101.07878113 C-1.08191361 98.47307223 -1.0297539 95.86738484 -0.9765625 93.26171875 C-0.95228226 90.56747661 -0.9431712 87.87323879 -0.9336853 85.1789093 C-0.90278466 78.84258441 -0.82097971 72.50801524 -0.72019041 66.17245847 C-0.6078421 58.95126224 -0.55329189 51.72997557 -0.50323606 44.50812089 C-0.39912111 29.67098883 -0.21597244 14.8359775 0 0 Z " fill="#004053" transform="translate(144,21)"/>
<path d="M0 0 C27.72 0 55.44 0 84 0 C84 8.25 84 16.5 84 25 C56.28 25 28.56 25 0 25 C0 16.75 0 8.5 0 0 Z " fill="#004052" transform="translate(1410,117)"/>
<path d="M0 0 C27.72 0 55.44 0 84 0 C84 8.25 84 16.5 84 25 C56.28 25 28.56 25 0 25 C0 16.75 0 8.5 0 0 Z " fill="#004052" transform="translate(1410,21)"/>
<path d="M0 0 C27.39 0 54.78 0 83 0 C79.51836483 3.48163517 76.8951086 5.9460927 72.9453125 8.59375 C72.00042969 9.23183594 71.05554687 9.86992188 70.08203125 10.52734375 C69.10621094 11.17832031 68.13039063 11.82929687 67.125 12.5 C65.18964642 13.80140287 63.2547406 15.10347189 61.3203125 16.40625 C60.46711426 16.97666016 59.61391602 17.54707031 58.73486328 18.13476562 C56.13897183 19.82077913 56.13897183 19.82077913 54.51164246 21.31950378 C49.19331299 25.80031436 44.3476663 25.65647278 37.59765625 25.48828125 C35.9811039 25.47766914 35.9811039 25.47766914 34.33189392 25.46684265 C30.90804041 25.43897489 27.48585472 25.37624738 24.0625 25.3125 C21.73374766 25.28740743 19.40496956 25.26459595 17.07617188 25.24414062 C11.38296362 25.19343517 5.69333645 25.09556141 0 25 C0 16.75 0 8.5 0 0 Z " fill="#004052" transform="translate(1410,69)"/>
</svg>
