<?xml version="1.0" encoding="UTF-8"?>
<svg version="1.1" xmlns="http://www.w3.org/2000/svg" width="1495" height="180">
<path d="M0 0 C36.63 0 73.26 0 111 0 C111 40.59 111 81.18 111 123 C102.09 123 93.18 123 84 123 C84 90.99 84 58.98 84 26 C65.19 26 46.38 26 27 26 C27.33 42.5 27.66 59 28 76 C38.9722286 61.95561593 38.9722286 61.95561593 49.625 47.6875 C56.38461964 38.41781844 56.38461964 38.41781844 60 34 C64.4274891 34.86768986 67.1189813 37.34487392 70.4375 40.25 C70.99759766 40.72824219 71.55769531 41.20648438 72.13476562 41.69921875 C75.57621414 44.66279985 78.82764555 47.7505603 82 51 C74.10498486 61.80144236 66.11058608 72.51757657 57.97802734 83.14135742 C53.46402794 89.04911288 49.02142748 95.00432381 44.625 101 C36.46179293 112.11783451 28.08433664 122.99068006 19.26635742 133.59814453 C16.37839193 137.07921323 13.52774493 140.57808518 10.765625 144.16015625 C10.26538818 144.80863525 9.76515137 145.45711426 9.24975586 146.12524414 C8.31467794 147.34495933 7.38546444 148.56920047 6.46313477 149.79858398 C3.32647825 153.89117392 3.32647825 153.89117392 0 155 C0 103.85 0 52.7 0 0 Z " fill="#F4F4D7" transform="translate(480,20)"/>
<path d="M0 0 C2.8817108 0.3458053 3.90090402 0.89528724 5.9296875 3.0390625 C6.57164063 3.89242188 7.21359375 4.74578125 7.875 5.625 C10.3279267 8.84647972 12.80157396 11.91456648 15.5625 14.875 C18 18 18 18 17.953125 19.85546875 C16.57565715 22.95477142 14.51858473 24.97968964 12.1875 27.4375 C11.18092709 28.50905588 10.1744189 29.58067256 9.16796875 30.65234375 C8.64509277 31.20390137 8.1222168 31.75545898 7.58349609 32.32373047 C5.03067549 35.02611503 2.51745002 37.76471349 0 40.5 C-1.01028798 41.59386887 -2.02070442 42.6876191 -3.03125 43.78125 C-6.76055064 47.8213257 -10.47423457 51.87554577 -14.1796875 55.9375 C-16.20357815 58.14747896 -18.25510019 60.32860404 -20.3203125 62.5 C-20.87138672 63.08394531 -21.42246094 63.66789062 -21.99023438 64.26953125 C-23.0558967 65.39758002 -24.12726717 66.52027181 -25.20507812 67.63671875 C-27.0784457 69.62795551 -28.76367191 71.58724642 -30.125 73.96484375 C-29.90829427 77.49308394 -27.49484045 79.89016487 -25.375 82.5625 C-24.34219652 83.91579421 -23.31237498 85.27136807 -22.28515625 86.62890625 C-21.74262207 87.34320801 -21.20008789 88.05750977 -20.64111328 88.79345703 C-17.91956781 92.45268464 -15.36845222 96.22409848 -12.8125 100 C-7.97875903 107.11253563 -3.10334138 114.19392836 1.8125 121.25 C2.47572266 122.20197266 3.13894531 123.15394531 3.82226562 124.13476562 C5.18246362 126.08669557 6.54281684 128.03851735 7.90332031 129.99023438 C10.07058417 133.10132297 12.23492451 136.21442696 14.3984375 139.328125 C15.11668701 140.36163086 15.83493652 141.39513672 16.57495117 142.45996094 C17.94518119 144.43177466 19.31515143 146.40376895 20.68481445 148.37597656 C21.30831787 149.2728418 21.93182129 150.16970703 22.57421875 151.09375 C23.15864746 151.93550781 23.74307617 152.77726563 24.34521484 153.64453125 C25.85568055 155.79457155 27.40125013 157.91394703 28.95703125 160.03125 C31 163 31 163 31 165 C27.59497856 167.04096165 24.17432888 169.05412887 20.75 171.0625 C19.78191406 171.64322266 18.81382813 172.22394531 17.81640625 172.82226562 C16.88183594 173.36689453 15.94726562 173.91152344 14.984375 174.47265625 C14.12553711 174.98062744 13.26669922 175.48859863 12.38183594 176.01196289 C10 177 10 177 7.86914062 176.88696289 C5.47336086 175.75009405 4.59200814 174.53000787 3.109375 172.3359375 C2.573125 171.55541016 2.036875 170.77488281 1.484375 169.97070312 C0.91203125 169.11412109 0.3396875 168.25753906 -0.25 167.375 C-1.50505154 165.53895532 -2.76026622 163.70302213 -4.015625 161.8671875 C-4.66853516 160.90393555 -5.32144531 159.94068359 -5.99414062 158.94824219 C-9.28963467 154.10447562 -12.64815394 149.30485505 -16 144.5 C-17.34918767 142.56005531 -18.69814683 140.61995168 -20.046875 138.6796875 C-29.97272474 124.41188491 -39.9638103 110.19036346 -50 96 C-50.78375 96.78375 -51.5675 97.5675 -52.375 98.375 C-53.91666667 99.91666667 -55.45833333 101.45833333 -57 103 C-57.3333729 106.15776613 -57.3333729 106.15776613 -57.31884766 109.92822266 C-57.32889328 110.64052536 -57.3389389 111.35282806 -57.34928894 112.0867157 C-57.38022904 114.44582293 -57.39718577 116.80481615 -57.4140625 119.1640625 C-57.43276548 120.79789214 -57.45233823 122.43171203 -57.4727478 124.06552124 C-57.5241671 128.36940781 -57.56374018 132.67332573 -57.60089111 136.97735596 C-57.64086953 141.36779599 -57.6919899 145.75810452 -57.7421875 150.1484375 C-57.83906272 158.76553531 -57.92343015 167.38269797 -58 176 C-60.88575322 173.1326174 -63.6922304 170.29329752 -66.26953125 167.14453125 C-66.84896484 166.43876953 -67.42839844 165.73300781 -68.02539062 165.00585938 C-68.61513672 164.28205078 -69.20488281 163.55824219 -69.8125 162.8125 C-70.6797168 161.75579102 -70.6797168 161.75579102 -71.56445312 160.67773438 C-72.72437401 159.26147738 -73.8751536 157.83767377 -75.01570892 156.40577507 C-76.31571955 154.82962872 -77.66908461 153.29570155 -79.07627106 151.81445503 C-85.13824022 145.13768983 -86.13305393 140.2465894 -85.90820312 131.39013672 C-85.90937134 130.16948013 -85.91053955 128.94882355 -85.91174316 127.69117737 C-85.90715421 124.37415757 -85.86731502 121.06122177 -85.8111515 117.74492407 C-85.76081666 114.26839821 -85.75641649 110.79180596 -85.74694824 107.31497192 C-85.72217699 100.74512657 -85.65665887 94.17635829 -85.57615232 87.60698521 C-85.48643699 80.12216344 -85.44267349 72.63728764 -85.40258884 65.15206122 C-85.31918074 49.7673126 -85.1725934 34.3840459 -85 19 C-76.09 19 -67.18 19 -58 19 C-57.67 33.19 -57.34 47.38 -57 62 C-46.07893956 50.40073191 -46.07893956 50.40073191 -35.36328125 38.61328125 C-32.32078745 35.24893687 -29.22448914 31.93678859 -26.125 28.625 C-17.29670468 19.190063 -8.54393461 9.69455045 0 0 Z " fill="#F3F3D7" transform="translate(1349,0)"/>
<path d="M0 0 C36.63 0 73.26 0 111 0 C108.03 20.295 108.03 20.295 105 41 C102.73517448 56.65074781 102.73517448 56.65074781 100.47729492 72.30249023 C100 75 100 75 99 77 C91.08 77.33 83.16 77.66 75 78 C76.918125 81.403125 78.83625 84.80625 80.8125 88.3125 C81.44397949 89.43744873 82.07545898 90.56239746 82.72607422 91.72143555 C85.54051994 96.72103335 88.39081869 101.68628209 91.3828125 106.58203125 C91.8986792 107.43563232 92.4145459 108.2892334 92.94604492 109.16870117 C93.92340185 110.77832436 94.91531564 112.37921845 95.9230957 113.9699707 C96.35968506 114.694021 96.79627441 115.41807129 97.24609375 116.1640625 C97.63466553 116.78748535 98.0232373 117.4109082 98.42358398 118.05322266 C99.27681845 120.93492177 98.35114595 122.37664974 97 125 C95.57958984 127.12817383 95.57958984 127.12817383 93.9609375 129.20703125 C93.09082031 130.33334961 93.09082031 130.33334961 92.203125 131.48242188 C91.59984375 132.25134766 90.9965625 133.02027344 90.375 133.8125 C89.76398438 134.60076172 89.15296875 135.38902344 88.5234375 136.20117188 C87.0207657 138.13820974 85.51286614 140.07092079 84 142 C81.38287714 139.63728605 79.82678251 137.16564147 78.13671875 134.08203125 C77.58701416 133.08768066 77.03730957 132.09333008 76.47094727 131.06884766 C75.58814087 129.45695557 75.58814087 129.45695557 74.6875 127.8125 C73.42110528 125.52372361 72.1528289 123.23598749 70.8828125 120.94921875 C70.55928299 120.36640137 70.23575348 119.78358398 69.90242004 119.18310547 C66.70878926 113.44584281 63.39425339 107.78275718 60.0625 102.125 C54.26118489 92.25708884 48.66388101 82.28791957 43.14868164 72.25830078 C39.91879935 66.3960533 36.61079394 60.61761993 33.06640625 54.93896484 C32 53 32 53 32 51 C46.52 51 61.04 51 76 51 C76.99 44.07 77.98 37.14 79 30 C79.33 28.68 79.66 27.36 80 26 C62.51 26 45.02 26 27 26 C27 58.01 27 90.02 27 123 C18.09 123 9.18 123 0 123 C0 82.41 0 41.82 0 0 Z " fill="#F4F4D7" transform="translate(1043,20)"/>
<path d="M0 0 C0.80991898 0.00359528 1.61983795 0.00719055 2.45429993 0.01089478 C3.30300659 0.01074875 4.15171326 0.01060272 5.02613831 0.01045227 C7.84523532 0.01115168 10.66426712 0.01894539 13.48335266 0.02676392 C15.43248458 0.028628 17.38161696 0.03005195 19.33074951 0.03105164 C24.47151473 0.03487761 29.61225188 0.04470858 34.75300598 0.05575562 C39.99449789 0.06596802 45.23599431 0.07054889 50.47749329 0.07559204 C60.76982335 0.08633078 71.06213255 0.10340815 81.35444641 0.12442017 C80.40460422 1.40275299 79.45311199 2.67985988 78.50093079 3.95645142 C77.97124695 4.66777222 77.44156311 5.37909302 76.89582825 6.11196899 C74.36806991 9.41224808 71.53023342 12.39966309 68.69819641 15.43692017 C66.39681171 17.89814926 66.39681171 17.89814926 65.20980835 20.12643433 C63.22964476 23.40612906 61.7754867 25.76817801 57.93681335 26.73049927 C54.94686994 26.81405391 52.0511575 26.65599522 49.06929016 26.42129517 C46.82396201 26.34617462 44.57851029 26.27467628 42.33296204 26.20645142 C38.81542931 26.05608136 35.30720847 25.87549638 31.79512024 25.62783813 C28.38376657 25.40508138 24.98662652 25.31174329 21.56929016 25.23379517 C20.53964645 25.1273468 19.51000275 25.02089844 18.44915771 24.91122437 C14.81406812 24.7063435 14.81406812 24.7063435 9.35444641 27.12442017 C5.06444641 33.72442017 0.77444641 40.32442017 -3.64555359 47.12442017 C24.73444641 47.12442017 53.11444641 47.12442017 82.35444641 47.12442017 C82.35444641 82.13899701 82.35444641 82.13899701 72.0785675 94.89004517 C69.03145474 98.83895143 66.51613108 103.1234479 63.91694641 107.37442017 C62.96414105 108.90310389 62.00731193 110.42928943 61.04585266 111.95254517 C60.44559265 112.91015747 60.44559265 112.91015747 59.83320618 113.88711548 C59.34521545 114.62542603 58.85722473 115.36373657 58.35444641 116.12442017 C57.89840342 116.97671062 57.89840342 116.97671062 57.43314743 117.84621906 C54.5351465 122.73379089 54.5351465 122.73379089 51.42922878 123.76136971 C49.04060627 123.9869701 46.73988713 123.99075939 44.34150696 123.9190979 C43.44344833 123.92012009 42.54538971 123.92114227 41.62011719 123.92219543 C38.6592512 123.91732829 35.7014905 123.86293 32.74116516 123.80801392 C30.68566574 123.79495458 28.63014449 123.78499199 26.57461548 123.77799988 C21.17026884 123.75130093 15.76724382 123.68256159 10.36341858 123.60507202 C4.84693786 123.53340308 -0.66975691 123.50148051 -6.18656921 123.46621704 C-17.00681065 123.39119334 -27.82607213 123.27175614 -38.64555359 123.12442017 C-37.32856118 120.41422556 -36.03236235 118.21507566 -34.03617859 115.95254517 C-33.27434265 115.07856079 -33.27434265 115.07856079 -32.49711609 114.18692017 C-31.96860046 113.58879517 -31.44008484 112.99067017 -30.89555359 112.37442017 C-29.85650954 111.19440029 -28.82005912 110.01209171 -27.78617859 108.82754517 C-27.28517639 108.26650085 -26.78417419 107.70545654 -26.26799011 107.12741089 C-24.60265528 105.18935011 -24.60265528 105.18935011 -23.4806366 103.02816772 C-22.07239576 100.60255189 -20.80903446 98.92410969 -18.64555359 97.12442017 C-14.31468246 96.11711593 -10.13948568 96.43211528 -5.72367859 96.68692017 C-3.14560044 96.74252196 -0.56747211 96.7958357 2.01069641 96.84707642 C6.05904547 96.96444866 10.10419658 97.12096125 14.14936829 97.31924438 C28.41368919 98.69088058 28.41368919 98.69088058 41.5304718 94.61953735 C44.85787128 91.02835498 46.88794037 86.98748607 48.44654846 82.37197876 C49.7536133 79.13625738 51.62304866 76.15436623 53.35444641 73.12442017 C24.31444641 73.12442017 -4.72555359 73.12442017 -34.64555359 73.12442017 C-34.64555359 43.19872817 -34.64555359 43.19872817 -25.70805359 30.37442017 C-24.86345149 29.07322796 -24.02425326 27.76851226 -23.19047546 26.46035767 C-21.54742797 23.90291679 -19.87444294 21.37076119 -18.16557312 18.85684204 C-15.16074502 14.43329067 -12.29117801 9.92582826 -9.42169189 5.41378784 C-6.31229339 0.54471525 -5.88062648 0.01102239 0 0 Z " fill="#F4F4D7" transform="translate(751.6455535888672,19.875579833984375)"/>
<path d="M0 0 C3.95095803 1.31698601 5.46210512 3.85396451 7.875 7.0625 C8.85816232 8.34077737 9.84258946 9.6180827 10.828125 10.89453125 C11.6025293 11.9012085 11.6025293 11.9012085 12.39257812 12.92822266 C21.43062862 24.5772045 30.78927202 35.95214258 41.3203125 46.2890625 C43.75191912 48.76590831 45.98526307 51.40253749 48.25 54.03125 C49.93798286 55.93023071 51.68769734 57.72005988 53.5 59.5 C56.58704862 62.53192275 59.40997526 65.73281549 62.23046875 69.01171875 C64.54670384 71.61428754 67.01129992 74.04063448 69.51953125 76.45703125 C71 78 71 78 73 81 C73.33 59.22 73.66 37.44 74 15 C82.91 15 91.82 15 101 15 C101 61.2 101 107.4 101 155 C98.03733013 152.03733013 95.34434961 149.33798842 92.73046875 146.14453125 C92.15578857 145.44465088 91.5811084 144.74477051 90.98901367 144.02368164 C90.39451416 143.2939917 89.80001465 142.56430176 89.1875 141.8125 C88.56657471 141.05509521 87.94564941 140.29769043 87.3059082 139.51733398 C84.06595447 135.55851948 80.85824526 131.57707263 77.6875 127.5625 C70.93293417 119.08002199 63.40266662 111.2480134 56.04296875 103.29296875 C52.26370707 99.20646953 48.50358299 95.10260957 44.74609375 90.99609375 C42.8271741 88.89976585 40.90177251 86.8096037 38.97265625 84.72265625 C38.47515869 84.18326416 37.97766113 83.64387207 37.46508789 83.08813477 C36.08204815 81.58893905 34.69732674 80.0912952 33.3125 78.59375 C31 76 31 76 28 72 C27.67 94.11 27.34 116.22 27 139 C18.09 139 9.18 139 0 139 C0 93.13 0 47.26 0 0 Z " fill="#F4F4D7" transform="translate(214,4)"/>
<path d="M0 0 C3.95095803 1.31698601 5.46210512 3.85396451 7.875 7.0625 C8.85816232 8.34077737 9.84258946 9.6180827 10.828125 10.89453125 C11.6025293 11.9012085 11.6025293 11.9012085 12.39257812 12.92822266 C21.43062862 24.5772045 30.78927202 35.95214258 41.3203125 46.2890625 C43.75191912 48.76590831 45.98526307 51.40253749 48.25 54.03125 C49.93798286 55.93023071 51.68769734 57.72005988 53.5 59.5 C56.58704862 62.53192275 59.40997526 65.73281549 62.23046875 69.01171875 C64.54670384 71.61428754 67.01129992 74.04063448 69.51953125 76.45703125 C71 78 71 78 73 81 C73.33 59.22 73.66 37.44 74 15 C82.91 15 91.82 15 101 15 C101 61.2 101 107.4 101 155 C98.03733013 152.03733013 95.34434961 149.33798842 92.73046875 146.14453125 C92.15578857 145.44465088 91.5811084 144.74477051 90.98901367 144.02368164 C90.39451416 143.2939917 89.80001465 142.56430176 89.1875 141.8125 C88.56657471 141.05509521 87.94564941 140.29769043 87.3059082 139.51733398 C84.06595447 135.55851948 80.85824526 131.57707263 77.6875 127.5625 C70.93293417 119.08002199 63.40266662 111.2480134 56.04296875 103.29296875 C52.26370707 99.20646953 48.50358299 95.10260957 44.74609375 90.99609375 C42.8271741 88.89976585 40.90177251 86.8096037 38.97265625 84.72265625 C38.47515869 84.18326416 37.97766113 83.64387207 37.46508789 83.08813477 C36.08204815 81.58893905 34.69732674 80.0912952 33.3125 78.59375 C31 76 31 76 28 72 C27.67 94.11 27.34 116.22 27 139 C18.09 139 9.18 139 0 139 C0 93.13 0 47.26 0 0 Z " fill="#F4F4D7" transform="translate(0,4)"/>
<path d="M0 0 C25.08 0 50.16 0 76 0 C76 42.57 76 85.14 76 129 C59.83 135.6 43.66 142.2 27 149 C14.46140401 154.14758048 14.46140401 154.14758048 1.92797852 159.30761719 C0 160 0 160 -2 160 C-2 129.64 -2 99.28 -2 68 C2.59582473 71.93927834 7.12620362 75.89013798 11.5625 80 C12.10068359 80.495 12.63886719 80.99 13.19335938 81.5 C14.27486042 82.49950999 15.3440461 83.51251331 16.40039062 84.53857422 C17.95503518 86.03251881 17.95503518 86.03251881 19.72460938 87.15283203 C21.75156135 88.65988398 22.7980666 89.75680429 24 92 C24.73864555 97.30903887 24.56524936 102.53844571 24.375 107.875 C24.34487484 109.34109132 24.31750348 110.80724197 24.29296875 112.2734375 C24.22714448 115.85019911 24.123767 119.42472044 24 123 C24.57967529 122.76289307 25.15935059 122.52578613 25.7565918 122.28149414 C28.39838646 121.20391653 31.04289235 120.13315431 33.6875 119.0625 C35.05551758 118.50272461 35.05551758 118.50272461 36.45117188 117.93164062 C37.33740234 117.57392578 38.22363281 117.21621094 39.13671875 116.84765625 C39.94842529 116.51773682 40.76013184 116.18781738 41.59643555 115.84790039 C44 115 44 115 49 114 C49 84.96 49 55.92 49 26 C41.08 26 33.16 26 25 26 C19.18621185 21.95651034 15.34663122 18.78225672 11 13.5625 C9.91086855 12.36114221 8.81581493 11.16512621 7.71484375 9.97460938 C0 1.52692994 0 1.52692994 0 0 Z " fill="#F4F4D6" transform="translate(363,20)"/>
<path d="M0 0 C1.20293984 0.00276538 1.20293984 0.00276538 2.4301815 0.00558662 C3.81001968 0.00146263 3.81001968 0.00146263 5.21773338 -0.00274467 C6.22977333 0.00444588 7.24181328 0.01163643 8.2845211 0.01904488 C9.34795235 0.01875282 10.41138359 0.01846077 11.50704002 0.01815987 C15.03499978 0.01955731 18.56275041 0.03513809 22.09067345 0.05078316 C24.53162076 0.05451181 26.97256956 0.05735948 29.41351891 0.0593586 C35.84812085 0.06700667 42.28263296 0.08666525 48.71719933 0.10876656 C55.27917834 0.12919972 61.84117182 0.13835489 68.40317345 0.14843941 C81.28602434 0.16991002 94.16881287 0.2036774 107.05161095 0.24609566 C102.43501691 4.90397868 97.6063931 9.16229315 92.53598595 13.30859566 C90.27944356 15.16227232 88.2091719 17.07330923 86.19223595 19.18359566 C74.7587615 30.06084702 69.47290239 26.24609566 51.05161095 26.24609566 C51.05161095 69.14609566 51.05161095 112.04609566 51.05161095 156.24609566 C42.28391455 147.47839926 34.60990778 138.05112369 27.05161095 128.24609566 C26.51376472 127.71631111 25.9759185 127.18652657 25.42177391 126.64068794 C23.25142537 122.84763558 23.65969804 119.08906054 23.71103477 114.79590034 C23.71059669 113.83946632 23.71015862 112.8830323 23.70970726 111.89761543 C23.71179662 108.73752591 23.73513498 105.57796746 23.7586422 102.41797066 C23.76423762 100.22650632 23.76850797 98.03503823 23.77150536 95.8435688 C23.78295831 90.07639386 23.81242959 84.30944567 23.84561729 78.54236031 C23.88170463 71.62240472 23.89547716 64.7023733 23.91297722 57.78235054 C23.94206644 47.27010789 23.99955093 36.75836274 24.05161095 26.24609566 C5.57161095 26.24609566 -12.90838905 26.24609566 -31.94838905 26.24609566 C-24.5936011 18.8913077 -16.8616563 12.28776505 -8.64589882 5.927248 C-1.19120749 0.15045814 -1.19120749 0.15045814 0 0 Z " fill="#F4F4D7" transform="translate(900.9483890533447,19.753904342651367)"/>
<path d="M0 0 C8.91 0 17.82 0 27 0 C27 51.15 27 102.3 27 155 C26.34 155 25.68 155 25 155 C23.31536618 153.03612815 21.7447074 151.06199526 20.1875 149 C19.20583761 147.72287289 18.22270077 146.4468781 17.23828125 145.171875 C16.7170166 144.49576172 16.19575195 143.81964844 15.65869141 143.12304688 C12.23366853 138.73917892 8.68659616 134.45278586 5.15307617 130.15625 C4.62560791 129.51171875 4.09813965 128.8671875 3.5546875 128.203125 C3.08530762 127.63239258 2.61592773 127.06166016 2.13232422 126.47363281 C-0.07315875 123.60336649 -0.12387683 121.64704408 -0.12025452 118.0899353 C-0.12162918 117.05224503 -0.12300385 116.01455475 -0.12442017 114.94541931 C-0.12082489 113.80246902 -0.11722961 112.65951874 -0.11352539 111.48193359 C-0.11367142 110.28195236 -0.11381744 109.08197113 -0.1139679 107.84562683 C-0.11338957 104.55037139 -0.10836565 101.25517818 -0.10139394 97.95993376 C-0.09515327 94.51793824 -0.09455604 91.07594195 -0.09336853 87.63394165 C-0.09025732 81.11392065 -0.08204676 74.59391636 -0.07201904 68.07390273 C-0.06085138 60.65199262 -0.05534581 53.23008173 -0.05032361 45.80816531 C-0.03986398 30.53876554 -0.0215211 15.2693888 0 0 Z " fill="#F3F3D7" transform="translate(1194,20)"/>
<path d="M0 0 C8.91 0 17.82 0 27 0 C27 51.15 27 102.3 27 155 C26.34 155 25.68 155 25 155 C23.31536618 153.03612815 21.7447074 151.06199526 20.1875 149 C19.20583761 147.72287289 18.22270077 146.4468781 17.23828125 145.171875 C16.7170166 144.49576172 16.19575195 143.81964844 15.65869141 143.12304688 C12.23366853 138.73917892 8.68659616 134.45278586 5.15307617 130.15625 C4.62560791 129.51171875 4.09813965 128.8671875 3.5546875 128.203125 C3.08530762 127.63239258 2.61592773 127.06166016 2.13232422 126.47363281 C-0.07315875 123.60336649 -0.12387683 121.64704408 -0.12025452 118.0899353 C-0.12162918 117.05224503 -0.12300385 116.01455475 -0.12442017 114.94541931 C-0.12082489 113.80246902 -0.11722961 112.65951874 -0.11352539 111.48193359 C-0.11367142 110.28195236 -0.11381744 109.08197113 -0.1139679 107.84562683 C-0.11338957 104.55037139 -0.10836565 101.25517818 -0.10139394 97.95993376 C-0.09515327 94.51793824 -0.09455604 91.07594195 -0.09336853 87.63394165 C-0.09025732 81.11392065 -0.08204676 74.59391636 -0.07201904 68.07390273 C-0.06085138 60.65199262 -0.05534581 53.23008173 -0.05032361 45.80816531 C-0.03986398 30.53876554 -0.0215211 15.2693888 0 0 Z " fill="#F3F3D7" transform="translate(144,20)"/>
<path d="M0 0 C28.05 0 56.1 0 85 0 C85 8.58 85 17.16 85 26 C56.95 26 28.9 26 0 26 C0 17.42 0 8.84 0 0 Z " fill="#F3F3D7" transform="translate(1410,117)"/>
<path d="M0 0 C28.05 0 56.1 0 85 0 C85 8.58 85 17.16 85 26 C56.95 26 28.9 26 0 26 C0 17.42 0 8.84 0 0 Z " fill="#F3F3D7" transform="translate(1410,20)"/>
<path d="M0 0 C28.05 0 56.1 0 85 0 C79.37872154 5.62127846 79.37872154 5.62127846 76.50390625 7.54296875 C75.86130859 7.97802734 75.21871094 8.41308594 74.55664062 8.86132812 C73.89857422 9.29896484 73.24050781 9.73660156 72.5625 10.1875 C71.2709941 11.05429145 69.98068329 11.92286552 68.69140625 12.79296875 C67.95954102 13.26605469 67.22767578 13.73914063 66.47363281 14.2265625 C63.86084345 16.01874849 63.86084345 16.01874849 61.25292969 18.5703125 C50.22319606 28.48209709 38.24651579 27.15363423 24.125 26.625 C21.78004351 26.57474862 19.43498275 26.52913733 17.08984375 26.48828125 C11.38850673 26.38755091 5.70187221 26.19191043 0 26 C0 17.42 0 8.84 0 0 Z " fill="#F3F3D7" transform="translate(1410,68)"/>
</svg>
